<svg width="250" height="90" viewBox="0 0 250 90" fill="none" xmlns="http://www.w3.org/2000/svg">
<path opacity="0.5" d="M39.8159 23.8972C42.1305 19.9247 47.8695 19.9248 50.1842 23.8972L51.972 26.9656C53.0426 28.8029 55.0058 29.9364 57.1323 29.9448L60.6835 29.959C65.281 29.9773 68.1506 34.9475 65.8677 38.9382L64.1043 42.0207C63.0484 43.8666 63.0484 46.1334 64.1043 47.9793L65.8677 51.0618C68.1506 55.0525 65.281 60.0227 60.6835 60.041L57.1323 60.0552C55.0058 60.0636 53.0426 61.1971 51.972 63.0344L50.1842 66.1028C47.8695 70.0752 42.1305 70.0752 39.8159 66.1028L38.028 63.0344C36.9574 61.1971 34.9942 60.0636 32.8677 60.0552L29.3165 60.041C24.719 60.0227 21.8494 55.0525 24.1324 51.0618L25.8957 47.9793C26.9516 46.1334 26.9516 43.8666 25.8957 42.0207L24.1324 38.9382C21.8494 34.9475 24.719 29.9773 29.3165 29.959L32.8677 29.9448C34.9942 29.9364 36.9574 28.8029 38.028 26.9656L39.8159 23.8972Z" fill="url(#paint0_radial_1_92)"/>
<path opacity="0.5" d="M51.0688 24.1202C55.0596 21.8372 60.0298 24.7068 60.0481 29.3043L60.0622 32.8636C60.0707 34.9901 61.2042 36.9533 63.0415 38.0239L66.1169 39.8158C70.0893 42.1305 70.0893 47.8695 66.1169 50.1842L63.0415 51.9761C61.2041 53.0467 60.0707 55.0099 60.0622 57.1364L60.0481 60.6957C60.0297 65.2932 55.0596 68.1628 51.0688 65.8799L47.9793 64.1125C46.1334 63.0566 43.8666 63.0566 42.0207 64.1125L38.9312 65.8799C34.9404 68.1628 29.9703 65.2932 29.9519 60.6957L29.9378 57.1364C29.9293 55.0099 28.7959 53.0467 26.9585 51.9761L23.8831 50.1842C19.9107 47.8695 19.9107 42.1305 23.8831 39.8158L26.9585 38.0239C28.7959 36.9533 29.9293 34.9902 29.9378 32.8636L29.9519 29.3043C29.9703 24.7068 34.9404 21.8372 38.9312 24.1202L42.0207 25.8875C43.8666 26.9435 46.1334 26.9435 47.9793 25.8875L51.0688 24.1202Z" fill="url(#paint1_radial_1_92)"/>
<circle cx="45" cy="45" r="14" fill="white"/>
<path d="M82.4 63.5V26.25H98.05C100.15 26.25 101.967 26.65 103.5 27.45C105.067 28.2167 106.267 29.3 107.1 30.7C107.967 32.1 108.4 33.7333 108.4 35.6C108.4 37.5333 107.917 39.25 106.95 40.75C106.017 42.2167 104.667 43.3333 102.9 44.1L102.85 42.9C104.317 43.4333 105.567 44.1833 106.6 45.15C107.667 46.1167 108.483 47.25 109.05 48.55C109.617 49.8167 109.9 51.1833 109.9 52.65C109.9 55.9833 108.833 58.6333 106.7 60.6C104.6 62.5333 101.733 63.5 98.1 63.5H82.4ZM86.4 59.75H98.1C100.467 59.75 102.35 59.1333 103.75 57.9C105.183 56.6333 105.9 54.9 105.9 52.7C105.9 50.5333 105.183 48.8167 103.75 47.55C102.35 46.25 100.467 45.6 98.1 45.6H86.4V59.75ZM86.4 42H97.75C99.75 42 101.35 41.4167 102.55 40.25C103.783 39.0833 104.4 37.5833 104.4 35.75C104.4 33.8833 103.783 32.4667 102.55 31.5C101.35 30.5 99.75 30 97.75 30H86.4V42ZM113.518 63.5V36.7H117.268V41.1L116.768 40.45C117.401 39.1833 118.351 38.1833 119.618 37.45C120.918 36.7167 122.485 36.35 124.318 36.35H126.018V40.1H123.668C121.735 40.1 120.185 40.7 119.018 41.9C117.851 43.1 117.268 44.8 117.268 47V63.5H113.518ZM139.613 64.1C137.113 64.1 134.846 63.5 132.813 62.3C130.813 61.0667 129.229 59.3833 128.063 57.25C126.896 55.1167 126.313 52.7 126.313 50C126.313 47.3 126.879 44.9167 128.013 42.85C129.146 40.75 130.679 39.1 132.613 37.9C134.579 36.7 136.779 36.1 139.213 36.1C141.146 36.1 142.863 36.4667 144.363 37.2C145.896 37.9 147.196 38.8667 148.263 40.1C149.329 41.3 150.146 42.6667 150.713 44.2C151.279 45.7 151.563 47.25 151.563 48.85C151.563 49.1833 151.546 49.5667 151.513 50C151.479 50.4 151.429 50.8167 151.363 51.25H128.713V47.75H149.213L147.413 49.25C147.713 47.4167 147.496 45.7833 146.763 44.35C146.063 42.8833 145.046 41.7333 143.713 40.9C142.379 40.0333 140.879 39.6 139.213 39.6C137.546 39.6 135.996 40.0333 134.563 40.9C133.163 41.7667 132.063 42.9833 131.263 44.55C130.463 46.0833 130.146 47.9167 130.313 50.05C130.146 52.1833 130.479 54.05 131.313 55.65C132.179 57.2167 133.346 58.4333 134.813 59.3C136.313 60.1667 137.913 60.6 139.613 60.6C141.579 60.6 143.229 60.1333 144.563 59.2C145.896 58.2667 146.979 57.1 147.813 55.7L151.013 57.4C150.479 58.6 149.663 59.7167 148.562 60.75C147.463 61.75 146.146 62.5667 144.613 63.2C143.113 63.8 141.446 64.1 139.613 64.1ZM167.374 64.1C164.874 64.1 162.608 63.5 160.574 62.3C158.574 61.0667 156.991 59.3833 155.824 57.25C154.658 55.1167 154.074 52.7 154.074 50C154.074 47.3 154.641 44.9167 155.774 42.85C156.908 40.75 158.441 39.1 160.374 37.9C162.341 36.7 164.541 36.1 166.974 36.1C168.908 36.1 170.624 36.4667 172.124 37.2C173.658 37.9 174.958 38.8667 176.024 40.1C177.091 41.3 177.908 42.6667 178.474 44.2C179.041 45.7 179.324 47.25 179.324 48.85C179.324 49.1833 179.308 49.5667 179.274 50C179.241 50.4 179.191 50.8167 179.124 51.25H156.474V47.75H176.974L175.174 49.25C175.474 47.4167 175.258 45.7833 174.524 44.35C173.824 42.8833 172.808 41.7333 171.474 40.9C170.141 40.0333 168.641 39.6 166.974 39.6C165.308 39.6 163.758 40.0333 162.324 40.9C160.924 41.7667 159.824 42.9833 159.024 44.55C158.224 46.0833 157.908 47.9167 158.074 50.05C157.908 52.1833 158.241 54.05 159.074 55.65C159.941 57.2167 161.108 58.4333 162.574 59.3C164.074 60.1667 165.674 60.6 167.374 60.6C169.341 60.6 170.991 60.1333 172.324 59.2C173.658 58.2667 174.741 57.1 175.574 55.7L178.774 57.4C178.241 58.6 177.424 59.7167 176.324 60.75C175.224 61.75 173.908 62.5667 172.374 63.2C170.874 63.8 169.208 64.1 167.374 64.1ZM180.186 63.5V60.25L196.336 39L197.036 40.45H181.036V36.7H200.336V39.95L184.236 61.2L183.536 59.75H200.436V63.5H180.186ZM214.597 64.1C212.097 64.1 209.83 63.5 207.797 62.3C205.797 61.0667 204.214 59.3833 203.047 57.25C201.88 55.1167 201.297 52.7 201.297 50C201.297 47.3 201.864 44.9167 202.997 42.85C204.13 40.75 205.664 39.1 207.597 37.9C209.564 36.7 211.764 36.1 214.197 36.1C216.13 36.1 217.847 36.4667 219.347 37.2C220.88 37.9 222.18 38.8667 223.247 40.1C224.314 41.3 225.13 42.6667 225.697 44.2C226.264 45.7 226.547 47.25 226.547 48.85C226.547 49.1833 226.53 49.5667 226.497 50C226.464 50.4 226.414 50.8167 226.347 51.25H203.697V47.75H224.197L222.397 49.25C222.697 47.4167 222.48 45.7833 221.747 44.35C221.047 42.8833 220.03 41.7333 218.697 40.9C217.364 40.0333 215.864 39.6 214.197 39.6C212.53 39.6 210.98 40.0333 209.547 40.9C208.147 41.7667 207.047 42.9833 206.247 44.55C205.447 46.0833 205.13 47.9167 205.297 50.05C205.13 52.1833 205.464 54.05 206.297 55.65C207.164 57.2167 208.33 58.4333 209.797 59.3C211.297 60.1667 212.897 60.6 214.597 60.6C216.564 60.6 218.214 60.1333 219.547 59.2C220.88 58.2667 221.964 57.1 222.797 55.7L225.997 57.4C225.464 58.6 224.647 59.7167 223.547 60.75C222.447 61.75 221.13 62.5667 219.597 63.2C218.097 63.8 216.43 64.1 214.597 64.1Z" fill="white"/>
<defs>
<radialGradient id="paint0_radial_1_92" cx="0" cy="0" r="1" gradientUnits="userSpaceOnUse" gradientTransform="translate(45 45) rotate(90) scale(30)">
<stop stop-color="white" stop-opacity="0"/>
<stop offset="1" stop-color="white"/>
</radialGradient>
<radialGradient id="paint1_radial_1_92" cx="0" cy="0" r="1" gradientUnits="userSpaceOnUse" gradientTransform="translate(45 45) rotate(120) scale(30.0141)">
<stop stop-color="white" stop-opacity="0"/>
<stop offset="1" stop-color="white"/>
</radialGradient>
</defs>
</svg>
