<svg width="50" height="50" viewBox="0 0 50 50" fill="none" xmlns="http://www.w3.org/2000/svg">
<path d="M20.6799 4.40063C22.6087 1.09027 27.3913 1.09027 29.3201 4.40063L31.108 7.469C32.357 9.6126 34.6474 10.9349 37.1283 10.9448L40.6795 10.959C44.5108 10.9742 46.9021 15.116 44.9996 18.4417L43.2363 21.5242C42.0044 23.6777 42.0044 26.3223 43.2363 28.4758L44.9996 31.5583C46.9021 34.884 44.5108 39.0258 40.6795 39.041L37.1283 39.0552C34.6474 39.0651 32.357 40.3874 31.108 42.531L29.3201 45.5994C27.3913 48.9097 22.6087 48.9097 20.6799 45.5994L18.892 42.531C17.643 40.3874 15.3526 39.0651 12.8717 39.0552L9.3205 39.041C5.48921 39.0258 3.09793 34.884 5.00036 31.5583L6.76371 28.4758C7.99562 26.3223 7.99562 23.6777 6.76371 21.5242L5.00035 18.4417C3.09793 15.116 5.4892 10.9742 9.32049 10.959L12.8717 10.9448C15.3526 10.9349 17.643 9.6126 18.892 7.469L20.6799 4.40063Z" stroke="#F8832F" stroke-width="2"/>
<path opacity="0.5" d="M31.5654 4.98817C34.891 3.08574 39.0328 5.47701 39.0481 9.3083L39.0623 12.8676C39.0722 15.3485 40.3945 17.6389 42.5381 18.8879L45.6135 20.6799C48.9238 22.6087 48.9238 27.3913 45.6135 29.3201L42.5381 31.1121C40.3945 32.3611 39.0722 34.6515 39.0623 37.1324L39.0481 40.6917C39.0328 44.523 34.891 46.9143 31.5654 45.0118L28.4758 43.2445C26.3224 42.0126 23.6777 42.0126 21.5242 43.2445L18.4346 45.0118C15.109 46.9143 10.9672 44.523 10.9519 40.6917L10.9378 37.1324C10.9279 34.6515 9.60555 32.3611 7.46194 31.1121L4.38657 29.3201C1.07621 27.3913 1.0762 22.6087 4.38656 20.6799L7.46194 18.8879C9.60554 17.6389 10.9279 15.3486 10.9378 12.8676L10.9519 9.3083C10.9672 5.47701 15.109 3.08574 18.4346 4.98816L21.5242 6.75555C23.6777 7.98745 26.3224 7.98745 28.4758 6.75555L31.5654 4.98817Z" stroke="#F8832F" stroke-width="2"/>
<circle cx="25" cy="25" r="14" fill="url(#paint0_radial_1_129)"/>
<defs>
<radialGradient id="paint0_radial_1_129" cx="0" cy="0" r="1" gradientUnits="userSpaceOnUse" gradientTransform="translate(25 15.6667) rotate(90) scale(23.3333)">
<stop stop-color="#FED35C"/>
<stop offset="1" stop-color="#FC9B29"/>
</radialGradient>
</defs>
</svg>
