<svg width="122" height="126" viewBox="0 0 122 126" fill="none" xmlns="http://www.w3.org/2000/svg">
<g filter="url(#filter0_d_77_212)">
<path fill-rule="evenodd" clip-rule="evenodd" d="M101.222 65.0596C98.9183 65.6731 96.4974 66 94 66C78.536 66 66 53.464 66 38C66 31.1481 68.4612 24.871 72.5477 20.0046C72.3655 20.0015 72.1829 20 72 20C54.3269 20 40 34.3269 40 52C40 69.6731 54.3269 84 72 84C85.0213 84 96.2261 76.2226 101.222 65.0596Z" fill="url(#paint0_radial_77_212)"/>
</g>
<g filter="url(#filter1_d_77_212)">
<path d="M88.0534 33.0734C88.3054 31.8996 89.9802 31.8996 90.2323 33.0734L90.9614 36.4688C91.0534 36.8974 91.3883 37.2322 91.8169 37.3243L95.2123 38.0534C96.3861 38.3054 96.3861 39.9802 95.2123 40.2323L91.8169 40.9614C91.3883 41.0534 91.0534 41.3883 90.9614 41.8169L90.2323 45.2123C89.9802 46.3861 88.3054 46.3861 88.0534 45.2123L87.3243 41.8169C87.2322 41.3883 86.8974 41.0534 86.4688 40.9614L83.0734 40.2323C81.8996 39.9802 81.8996 38.3054 83.0734 38.0534L86.4688 37.3243C86.8974 37.2322 87.2322 36.8974 87.3243 36.4688L88.0534 33.0734Z" fill="white"/>
</g>
<g filter="url(#filter2_d_77_212)">
<path fill-rule="evenodd" clip-rule="evenodd" d="M49.9999 104C50 104 50 104 50 104V104H77C83.1 104 88.9501 101.577 93.2634 97.2634C97.5768 92.9501 100 87.1 100 81C100 74.9 97.5768 69.0499 93.2634 64.7365C88.9501 60.4232 83.1 58 77 58H75.3817C70.0675 49.5873 60.6862 43.9999 49.9999 43.9999C33.4314 43.9999 19.9999 57.4314 19.9999 73.9999C19.9999 90.5685 33.4314 104 49.9999 104Z" fill="url(#paint1_radial_77_212)" shape-rendering="crispEdges"/>
</g>
<defs>
<filter id="filter0_d_77_212" x="20" y="0" width="101.222" height="104" filterUnits="userSpaceOnUse" color-interpolation-filters="sRGB">
<feFlood flood-opacity="0" result="BackgroundImageFix"/>
<feColorMatrix in="SourceAlpha" type="matrix" values="0 0 0 0 0 0 0 0 0 0 0 0 0 0 0 0 0 0 127 0" result="hardAlpha"/>
<feOffset/>
<feGaussianBlur stdDeviation="10"/>
<feComposite in2="hardAlpha" operator="out"/>
<feColorMatrix type="matrix" values="0 0 0 0 0.293594 0 0 0 0 0.371969 0 0 0 0 0.881406 0 0 0 0.5 0"/>
<feBlend mode="normal" in2="BackgroundImageFix" result="effect1_dropShadow_77_212"/>
<feBlend mode="normal" in="SourceGraphic" in2="effect1_dropShadow_77_212" result="shape"/>
</filter>
<filter id="filter1_d_77_212" x="73.2788" y="23.2788" width="31.7281" height="31.7281" filterUnits="userSpaceOnUse" color-interpolation-filters="sRGB">
<feFlood flood-opacity="0" result="BackgroundImageFix"/>
<feColorMatrix in="SourceAlpha" type="matrix" values="0 0 0 0 0 0 0 0 0 0 0 0 0 0 0 0 0 0 127 0" result="hardAlpha"/>
<feOffset/>
<feGaussianBlur stdDeviation="4.45714"/>
<feComposite in2="hardAlpha" operator="out"/>
<feColorMatrix type="matrix" values="0 0 0 0 1 0 0 0 0 1 0 0 0 0 1 0 0 0 0.5 0"/>
<feBlend mode="normal" in2="BackgroundImageFix" result="effect1_dropShadow_77_212"/>
<feBlend mode="normal" in="SourceGraphic" in2="effect1_dropShadow_77_212" result="shape"/>
</filter>
<filter id="filter2_d_77_212" x="-6.10352e-05" y="25.9999" width="120" height="100" filterUnits="userSpaceOnUse" color-interpolation-filters="sRGB">
<feFlood flood-opacity="0" result="BackgroundImageFix"/>
<feColorMatrix in="SourceAlpha" type="matrix" values="0 0 0 0 0 0 0 0 0 0 0 0 0 0 0 0 0 0 127 0" result="hardAlpha"/>
<feOffset dy="2"/>
<feGaussianBlur stdDeviation="10"/>
<feComposite in2="hardAlpha" operator="out"/>
<feColorMatrix type="matrix" values="0 0 0 0 0 0 0 0 0 0 0 0 0 0 0 0 0 0 0.1 0"/>
<feBlend mode="normal" in2="BackgroundImageFix" result="effect1_dropShadow_77_212"/>
<feBlend mode="normal" in="SourceGraphic" in2="effect1_dropShadow_77_212" result="shape"/>
</filter>
<radialGradient id="paint0_radial_77_212" cx="0" cy="0" r="1" gradientUnits="userSpaceOnUse" gradientTransform="translate(46 27.6377) rotate(90) scale(46.6667 46.6667)">
<stop stop-color="#9ADDFE"/>
<stop offset="1" stop-color="#8CB8FB"/>
</radialGradient>
<radialGradient id="paint1_radial_77_212" cx="0" cy="0" r="1" gradientUnits="userSpaceOnUse" gradientTransform="translate(65.5 51.5) rotate(125.647) scale(60.9139 81.2185)">
<stop stop-color="white"/>
<stop offset="1" stop-color="white" stop-opacity="0.8"/>
</radialGradient>
</defs>
</svg>
