<svg width="100" height="100" viewBox="0 0 100 100" fill="none" xmlns="http://www.w3.org/2000/svg">
<path opacity="0.5" d="M36.9499 12.397C42.7765 2.39713 57.2235 2.39713 63.0501 12.397V12.397C65.7451 17.0222 70.687 19.8754 76.0401 19.8967V19.8967C87.6135 19.9428 94.837 32.4543 89.0902 42.5002V42.5002C86.4322 47.1468 86.4322 52.8532 89.0902 57.4998V57.4998C94.837 67.5457 87.6135 80.0572 76.0401 80.1033V80.1033C70.687 80.1246 65.7451 82.9778 63.0501 87.603V87.603C57.2235 97.6029 42.7765 97.6029 36.9499 87.603V87.603C34.2549 82.9778 29.313 80.1246 23.9599 80.1033V80.1033C12.3865 80.0572 5.16296 67.5457 10.9098 57.4998V57.4998C13.5678 52.8532 13.5678 47.1468 10.9098 42.5002V42.5002C5.16296 32.4543 12.3865 19.9428 23.9599 19.8967V19.8967C29.313 19.8754 34.2549 17.0222 36.9499 12.397V12.397Z" fill="white"/>
<path opacity="0.5" d="M57.5033 10.8914C67.554 5.14192 80.0713 12.3688 80.1174 23.9477V23.9477C80.1388 29.3033 82.9933 34.2475 87.6207 36.9437V36.9437C97.6253 42.7731 97.6252 57.2269 87.6207 63.0563V63.0563C82.9933 65.7525 80.1388 70.6968 80.1174 76.0523V76.0523C80.0713 87.6312 67.554 94.8581 57.5033 89.1086V89.1086C52.8546 86.4493 47.1455 86.4493 42.4968 89.1086V89.1086C32.4461 94.8581 19.9288 87.6312 19.8826 76.0523V76.0523C19.8613 70.6968 17.0068 65.7525 12.3794 63.0563V63.0563C2.37482 57.2269 2.37482 42.7731 12.3794 36.9437V36.9437C17.0068 34.2475 19.8613 29.3033 19.8826 23.9477V23.9477C19.9288 12.3688 32.4461 5.14192 42.4968 10.8914V10.8914C47.1455 13.5507 52.8546 13.5507 57.5033 10.8914V10.8914Z" fill="white"/>
<path d="M45.729 59.6697V58.4016C45.729 56.5416 45.9993 54.893 46.5398 53.4557C47.1219 52.0185 47.8495 50.7503 48.7226 49.6513C49.5957 48.5099 50.5104 47.4742 51.4667 46.5443C52.7556 45.2338 53.8989 44.0291 54.8968 42.93C55.9362 41.7886 56.4559 40.4571 56.4559 38.9353C56.4559 38.0053 56.2272 37.1387 55.7699 36.3355C55.3125 35.5324 54.6265 34.8983 53.7118 34.4333C52.8387 33.9683 51.7577 33.7358 50.4688 33.7358C48.7226 33.7358 47.205 34.2853 45.9161 35.3844C44.6688 36.4835 43.8996 37.9419 43.6086 39.7596L36 37.8573C36.3742 35.4901 37.2057 33.4188 38.4946 31.6433C39.8251 29.8679 41.5297 28.4941 43.6086 27.5218C45.729 26.5073 48.0781 26 50.6559 26C53.691 26 56.2688 26.6129 58.3892 27.8388C60.5513 29.0647 62.1935 30.6499 63.3161 32.5944C64.4387 34.539 65 36.5892 65 38.745C65 40.4359 64.6674 41.9366 64.0021 43.247C63.3369 44.5575 62.5054 45.7622 61.5075 46.8613C60.5513 47.9181 59.5534 48.9749 58.514 50.0317C57.1835 51.2999 56.0194 52.6314 55.0215 54.0264C54.0237 55.4214 53.5247 57.0489 53.5247 58.9088V59.6697H45.729ZM45.5419 74V65.1229H53.8366V74H45.5419Z" fill="#EFAF56"/>
</svg>
