<svg width="119" height="104" viewBox="0 0 119 104" fill="none" xmlns="http://www.w3.org/2000/svg">
<g filter="url(#filter0_i_113_598)">
<path d="M40.5858 69.4142C41.3668 68.6332 42.6332 68.6332 43.4142 69.4142L46.5858 72.5858C47.3668 73.3668 47.3668 74.6332 46.5858 75.4142L43.4142 78.5858C42.6332 79.3668 41.3668 79.3668 40.5858 78.5858L37.4142 75.4142C36.6332 74.6332 36.6332 73.3668 37.4142 72.5858L40.5858 69.4142Z" fill="#7AA8FC" fill-opacity="0.8"/>
</g>
<g filter="url(#filter1_i_113_598)">
<path d="M73.5858 81.4142C74.3668 80.6332 75.6332 80.6332 76.4142 81.4142L79.5858 84.5858C80.3668 85.3668 80.3668 86.6332 79.5858 87.4142L76.4142 90.5858C75.6332 91.3668 74.3668 91.3668 73.5858 90.5858L70.4142 87.4142C69.6332 86.6332 69.6332 85.3668 70.4142 84.5858L73.5858 81.4142Z" fill="#7AA8FC" fill-opacity="0.8"/>
</g>
<g filter="url(#filter2_i_113_598)">
<path d="M62.5858 69.4142C63.3668 68.6332 64.6332 68.6332 65.4142 69.4142L68.5858 72.5858C69.3668 73.3668 69.3668 74.6332 68.5858 75.4142L65.4142 78.5858C64.6332 79.3668 63.3668 79.3668 62.5858 78.5858L59.4142 75.4142C58.6332 74.6332 58.6332 73.3668 59.4142 72.5858L62.5858 69.4142Z" fill="#7AA8FC" fill-opacity="0.8"/>
</g>
<g filter="url(#filter3_i_113_598)">
<path d="M84.5858 69.4142C85.3668 68.6332 86.6332 68.6332 87.4142 69.4142L90.5858 72.5858C91.3668 73.3668 91.3668 74.6332 90.5858 75.4142L87.4142 78.5858C86.6332 79.3668 85.3668 79.3668 84.5858 78.5858L81.4142 75.4142C80.6332 74.6332 80.6332 73.3668 81.4142 72.5858L84.5858 69.4142Z" fill="#7AA8FC" fill-opacity="0.8"/>
</g>
<g filter="url(#filter4_d_113_598)">
<path fill-rule="evenodd" clip-rule="evenodd" d="M62 42V42L54.9706 42C54.9706 42 54.9706 42 54.9706 42H62ZM62 66H38C34.4399 66 30.9598 64.9444 27.9997 62.9665C25.0397 60.9886 22.7326 58.1774 21.3702 54.8883C20.0078 51.5993 19.6513 47.9801 20.3459 44.4884C21.0404 40.9968 22.7547 37.7895 25.2721 35.2721C27.7894 32.7548 30.9967 31.0404 34.4884 30.3459C36.6682 29.9123 38.8978 29.8883 41.0657 30.263C41.3704 29.7196 41.6969 29.1869 42.0447 28.6663C44.6819 24.7195 48.4302 21.6434 52.8156 19.8269C57.201 18.0104 62.0266 17.5351 66.6822 18.4612C71.3377 19.3872 75.6141 21.673 78.9706 25.0294C82.0205 28.0794 84.1864 31.8889 85.2513 36.0523C88.7713 36.3468 92.09 37.8768 94.6066 40.3934C97.4196 43.2065 99 47.0218 99 51C99 54.9783 97.4196 58.7936 94.6066 61.6066C91.7936 64.4197 87.9782 66 84 66H62Z" fill="url(#paint0_radial_113_598)" shape-rendering="crispEdges"/>
</g>
<g filter="url(#filter5_i_113_598)">
<path d="M51.5858 81.4142C52.3668 80.6332 53.6332 80.6332 54.4142 81.4142L57.5858 84.5858C58.3668 85.3668 58.3668 86.6332 57.5858 87.4142L54.4142 90.5858C53.6332 91.3668 52.3668 91.3668 51.5858 90.5858L48.4142 87.4142C47.6332 86.6332 47.6332 85.3668 48.4142 84.5858L51.5858 81.4142Z" fill="#7AA8FC" fill-opacity="0.8"/>
</g>
<defs>
<filter id="filter0_i_113_598" x="36.8284" y="68.8284" width="10.3431" height="12.3433" filterUnits="userSpaceOnUse" color-interpolation-filters="sRGB">
<feFlood flood-opacity="0" result="BackgroundImageFix"/>
<feBlend mode="normal" in="SourceGraphic" in2="BackgroundImageFix" result="shape"/>
<feColorMatrix in="SourceAlpha" type="matrix" values="0 0 0 0 0 0 0 0 0 0 0 0 0 0 0 0 0 0 127 0" result="hardAlpha"/>
<feOffset dy="2"/>
<feGaussianBlur stdDeviation="2"/>
<feComposite in2="hardAlpha" operator="arithmetic" k2="-1" k3="1"/>
<feColorMatrix type="matrix" values="0 0 0 0 1 0 0 0 0 1 0 0 0 0 1 0 0 0 0.25 0"/>
<feBlend mode="plus-lighter" in2="shape" result="effect1_innerShadow_113_598"/>
</filter>
<filter id="filter1_i_113_598" x="69.8284" y="80.8284" width="10.3431" height="12.3433" filterUnits="userSpaceOnUse" color-interpolation-filters="sRGB">
<feFlood flood-opacity="0" result="BackgroundImageFix"/>
<feBlend mode="normal" in="SourceGraphic" in2="BackgroundImageFix" result="shape"/>
<feColorMatrix in="SourceAlpha" type="matrix" values="0 0 0 0 0 0 0 0 0 0 0 0 0 0 0 0 0 0 127 0" result="hardAlpha"/>
<feOffset dy="2"/>
<feGaussianBlur stdDeviation="2"/>
<feComposite in2="hardAlpha" operator="arithmetic" k2="-1" k3="1"/>
<feColorMatrix type="matrix" values="0 0 0 0 1 0 0 0 0 1 0 0 0 0 1 0 0 0 0.25 0"/>
<feBlend mode="plus-lighter" in2="shape" result="effect1_innerShadow_113_598"/>
</filter>
<filter id="filter2_i_113_598" x="58.8284" y="68.8284" width="10.3431" height="12.3433" filterUnits="userSpaceOnUse" color-interpolation-filters="sRGB">
<feFlood flood-opacity="0" result="BackgroundImageFix"/>
<feBlend mode="normal" in="SourceGraphic" in2="BackgroundImageFix" result="shape"/>
<feColorMatrix in="SourceAlpha" type="matrix" values="0 0 0 0 0 0 0 0 0 0 0 0 0 0 0 0 0 0 127 0" result="hardAlpha"/>
<feOffset dy="2"/>
<feGaussianBlur stdDeviation="2"/>
<feComposite in2="hardAlpha" operator="arithmetic" k2="-1" k3="1"/>
<feColorMatrix type="matrix" values="0 0 0 0 1 0 0 0 0 1 0 0 0 0 1 0 0 0 0.25 0"/>
<feBlend mode="plus-lighter" in2="shape" result="effect1_innerShadow_113_598"/>
</filter>
<filter id="filter3_i_113_598" x="80.8284" y="68.8284" width="10.3431" height="12.3433" filterUnits="userSpaceOnUse" color-interpolation-filters="sRGB">
<feFlood flood-opacity="0" result="BackgroundImageFix"/>
<feBlend mode="normal" in="SourceGraphic" in2="BackgroundImageFix" result="shape"/>
<feColorMatrix in="SourceAlpha" type="matrix" values="0 0 0 0 0 0 0 0 0 0 0 0 0 0 0 0 0 0 127 0" result="hardAlpha"/>
<feOffset dy="2"/>
<feGaussianBlur stdDeviation="2"/>
<feComposite in2="hardAlpha" operator="arithmetic" k2="-1" k3="1"/>
<feColorMatrix type="matrix" values="0 0 0 0 1 0 0 0 0 1 0 0 0 0 1 0 0 0 0.25 0"/>
<feBlend mode="plus-lighter" in2="shape" result="effect1_innerShadow_113_598"/>
</filter>
<filter id="filter4_d_113_598" x="0" y="0" width="119" height="88" filterUnits="userSpaceOnUse" color-interpolation-filters="sRGB">
<feFlood flood-opacity="0" result="BackgroundImageFix"/>
<feColorMatrix in="SourceAlpha" type="matrix" values="0 0 0 0 0 0 0 0 0 0 0 0 0 0 0 0 0 0 127 0" result="hardAlpha"/>
<feOffset dy="2"/>
<feGaussianBlur stdDeviation="10"/>
<feComposite in2="hardAlpha" operator="out"/>
<feColorMatrix type="matrix" values="0 0 0 0 0 0 0 0 0 0 0 0 0 0 0 0 0 0 0.1 0"/>
<feBlend mode="normal" in2="BackgroundImageFix" result="effect1_dropShadow_113_598"/>
<feBlend mode="normal" in="SourceGraphic" in2="effect1_dropShadow_113_598" result="shape"/>
</filter>
<filter id="filter5_i_113_598" x="47.8284" y="80.8284" width="10.3431" height="12.3433" filterUnits="userSpaceOnUse" color-interpolation-filters="sRGB">
<feFlood flood-opacity="0" result="BackgroundImageFix"/>
<feBlend mode="normal" in="SourceGraphic" in2="BackgroundImageFix" result="shape"/>
<feColorMatrix in="SourceAlpha" type="matrix" values="0 0 0 0 0 0 0 0 0 0 0 0 0 0 0 0 0 0 127 0" result="hardAlpha"/>
<feOffset dy="2"/>
<feGaussianBlur stdDeviation="2"/>
<feComposite in2="hardAlpha" operator="arithmetic" k2="-1" k3="1"/>
<feColorMatrix type="matrix" values="0 0 0 0 1 0 0 0 0 1 0 0 0 0 1 0 0 0 0.25 0"/>
<feBlend mode="plus-lighter" in2="shape" result="effect1_innerShadow_113_598"/>
</filter>
<radialGradient id="paint0_radial_113_598" cx="0" cy="0" r="1" gradientUnits="userSpaceOnUse" gradientTransform="translate(64.9313 24) rotate(131.517) scale(52.8876 73.8999)">
<stop stop-color="white"/>
<stop offset="1" stop-color="white" stop-opacity="0.8"/>
</radialGradient>
</defs>
</svg>
