<svg width="100" height="100" viewBox="0 0 100 100" fill="none" xmlns="http://www.w3.org/2000/svg">
<g opacity="0.5" filter="url(#filter0_i_113_668)">
<path d="M65.2294 16.6937C67.8961 15.1541 71.2294 17.0786 71.2294 20.1578L71.2294 79.8424C71.2294 82.9216 67.8961 84.8461 65.2294 83.3065L13.541 53.4642C10.8744 51.9246 10.8744 48.0756 13.541 46.536L65.2294 16.6937Z" fill="#FAFCFE" fill-opacity="0.8"/>
</g>
<g opacity="0.5" filter="url(#filter1_i_113_668)">
<path d="M34.7706 83.3063C32.1039 84.8459 28.7706 82.9214 28.7706 79.8422L28.7706 20.1576C28.7706 17.0784 32.1039 15.1539 34.7706 16.6935L86.459 46.5358C89.1256 48.0754 89.1256 51.9244 86.459 53.464L34.7706 83.3063Z" fill="#FAFCFE" fill-opacity="0.8"/>
</g>
<g filter="url(#filter2_i_113_668)">
<path d="M46.5359 22C48.0755 19.3333 51.9245 19.3333 53.4641 22L75.9808 61C77.5204 63.6667 75.5959 67 72.5167 67H27.4833C24.4041 67 22.4796 63.6667 24.0192 61L46.5359 22Z" fill="#FAFCFE" fill-opacity="0.8"/>
</g>
<g opacity="0.5" filter="url(#filter3_i_113_668)">
<path d="M53.4641 78C51.9245 80.6667 48.0755 80.6667 46.5359 78L24.0192 39C22.4796 36.3333 24.4041 33 27.4833 33L72.5167 33C75.5959 33 77.5204 36.3333 75.9808 39L53.4641 78Z" fill="#FAFCFE" fill-opacity="0.8"/>
</g>
<defs>
<filter id="filter0_i_113_668" x="11.541" y="14.1519" width="59.6884" height="69.6965" filterUnits="userSpaceOnUse" color-interpolation-filters="sRGB">
<feFlood flood-opacity="0" result="BackgroundImageFix"/>
<feBlend mode="normal" in="SourceGraphic" in2="BackgroundImageFix" result="shape"/>
<feColorMatrix in="SourceAlpha" type="matrix" values="0 0 0 0 0 0 0 0 0 0 0 0 0 0 0 0 0 0 127 0" result="hardAlpha"/>
<feOffset dy="-2"/>
<feGaussianBlur stdDeviation="2"/>
<feComposite in2="hardAlpha" operator="arithmetic" k2="-1" k3="1"/>
<feColorMatrix type="matrix" values="0 0 0 0 0.0875 0 0 0 0 0.59625 0 0 0 0 0.9125 0 0 0 0.1 0"/>
<feBlend mode="normal" in2="shape" result="effect1_innerShadow_113_668"/>
</filter>
<filter id="filter1_i_113_668" x="28.7706" y="14.1516" width="59.6884" height="69.6965" filterUnits="userSpaceOnUse" color-interpolation-filters="sRGB">
<feFlood flood-opacity="0" result="BackgroundImageFix"/>
<feBlend mode="normal" in="SourceGraphic" in2="BackgroundImageFix" result="shape"/>
<feColorMatrix in="SourceAlpha" type="matrix" values="0 0 0 0 0 0 0 0 0 0 0 0 0 0 0 0 0 0 127 0" result="hardAlpha"/>
<feOffset dy="-2"/>
<feGaussianBlur stdDeviation="2"/>
<feComposite in2="hardAlpha" operator="arithmetic" k2="-1" k3="1"/>
<feColorMatrix type="matrix" values="0 0 0 0 0.0875 0 0 0 0 0.59625 0 0 0 0 0.9125 0 0 0 0.1 0"/>
<feBlend mode="normal" in2="shape" result="effect1_innerShadow_113_668"/>
</filter>
<filter id="filter2_i_113_668" x="23.4774" y="18" width="53.0453" height="49" filterUnits="userSpaceOnUse" color-interpolation-filters="sRGB">
<feFlood flood-opacity="0" result="BackgroundImageFix"/>
<feBlend mode="normal" in="SourceGraphic" in2="BackgroundImageFix" result="shape"/>
<feColorMatrix in="SourceAlpha" type="matrix" values="0 0 0 0 0 0 0 0 0 0 0 0 0 0 0 0 0 0 127 0" result="hardAlpha"/>
<feOffset dy="-2"/>
<feGaussianBlur stdDeviation="2"/>
<feComposite in2="hardAlpha" operator="arithmetic" k2="-1" k3="1"/>
<feColorMatrix type="matrix" values="0 0 0 0 0.0875 0 0 0 0 0.59625 0 0 0 0 0.9125 0 0 0 0.1 0"/>
<feBlend mode="normal" in2="shape" result="effect1_innerShadow_113_668"/>
</filter>
<filter id="filter3_i_113_668" x="23.4774" y="31" width="53.0453" height="49" filterUnits="userSpaceOnUse" color-interpolation-filters="sRGB">
<feFlood flood-opacity="0" result="BackgroundImageFix"/>
<feBlend mode="normal" in="SourceGraphic" in2="BackgroundImageFix" result="shape"/>
<feColorMatrix in="SourceAlpha" type="matrix" values="0 0 0 0 0 0 0 0 0 0 0 0 0 0 0 0 0 0 127 0" result="hardAlpha"/>
<feOffset dy="-2"/>
<feGaussianBlur stdDeviation="2"/>
<feComposite in2="hardAlpha" operator="arithmetic" k2="-1" k3="1"/>
<feColorMatrix type="matrix" values="0 0 0 0 0.0875 0 0 0 0 0.59625 0 0 0 0 0.9125 0 0 0 0.1 0"/>
<feBlend mode="normal" in2="shape" result="effect1_innerShadow_113_668"/>
</filter>
</defs>
</svg>
