<svg width="122" height="126" viewBox="0 0 122 126" fill="none" xmlns="http://www.w3.org/2000/svg">
<g filter="url(#filter0_d_77_151)">
<path d="M88.0534 33.0734C88.3054 31.8996 89.9802 31.8996 90.2323 33.0734L90.9614 36.4688C91.0534 36.8974 91.3883 37.2322 91.8169 37.3243L95.2123 38.0534C96.3861 38.3054 96.3861 39.9802 95.2123 40.2323L91.8169 40.9614C91.3883 41.0534 91.0534 41.3883 90.9614 41.8169L90.2323 45.2123C89.9802 46.3861 88.3054 46.3861 88.0534 45.2123L87.3243 41.8169C87.2322 41.3883 86.8974 41.0534 86.4688 40.9614L83.0734 40.2323C81.8996 39.9802 81.8996 38.3054 83.0734 38.0534L86.4688 37.3243C86.8974 37.2322 87.2322 36.8974 87.3243 36.4688L88.0534 33.0734Z" fill="white"/>
</g>
<g filter="url(#filter1_d_77_151)">
<path fill-rule="evenodd" clip-rule="evenodd" d="M101.222 65.0596C98.9183 65.6731 96.4974 66 94 66C78.536 66 66 53.464 66 38C66 31.1481 68.4612 24.871 72.5477 20.0046C72.3655 20.0015 72.1829 20 72 20C54.3269 20 40 34.3269 40 52C40 69.6731 54.3269 84 72 84C85.0213 84 96.2261 76.2226 101.222 65.0596Z" fill="url(#paint0_radial_77_151)"/>
</g>
<g filter="url(#filter2_d_77_151)">
<path fill-rule="evenodd" clip-rule="evenodd" d="M40 104C36.0444 104 32.1776 102.827 28.8886 100.629C25.5996 98.4318 23.0362 95.3082 21.5224 91.6537C20.0087 87.9991 19.6126 83.9778 20.3843 80.0982C21.156 76.2186 23.0608 72.6549 25.8579 69.8579C28.6549 67.0608 32.2186 65.156 36.0982 64.3843C39.9778 63.6126 43.9991 64.0087 47.6537 65.5224C51.3082 67.0362 54.4318 69.5996 56.6294 72.8886C56.9584 73.3809 57.2644 73.8863 57.547 74.4029C59.6316 73.9097 61.8071 73.8667 63.9263 74.2882C66.8361 74.867 69.5088 76.2956 71.6066 78.3934C73.7044 80.4912 75.133 83.1639 75.7118 86.0737C76.2906 88.9834 75.9935 91.9994 74.8582 94.7403C73.7229 97.4812 71.8003 99.8238 69.3335 101.472C66.8668 103.12 63.9667 104 61 104L40 104Z" fill="url(#paint1_radial_77_151)" shape-rendering="crispEdges"/>
</g>
<defs>
<filter id="filter0_d_77_151" x="73.2788" y="23.2788" width="31.7281" height="31.7281" filterUnits="userSpaceOnUse" color-interpolation-filters="sRGB">
<feFlood flood-opacity="0" result="BackgroundImageFix"/>
<feColorMatrix in="SourceAlpha" type="matrix" values="0 0 0 0 0 0 0 0 0 0 0 0 0 0 0 0 0 0 127 0" result="hardAlpha"/>
<feOffset/>
<feGaussianBlur stdDeviation="4.45714"/>
<feComposite in2="hardAlpha" operator="out"/>
<feColorMatrix type="matrix" values="0 0 0 0 1 0 0 0 0 1 0 0 0 0 1 0 0 0 0.5 0"/>
<feBlend mode="normal" in2="BackgroundImageFix" result="effect1_dropShadow_77_151"/>
<feBlend mode="normal" in="SourceGraphic" in2="effect1_dropShadow_77_151" result="shape"/>
</filter>
<filter id="filter1_d_77_151" x="20" y="0" width="101.222" height="104" filterUnits="userSpaceOnUse" color-interpolation-filters="sRGB">
<feFlood flood-opacity="0" result="BackgroundImageFix"/>
<feColorMatrix in="SourceAlpha" type="matrix" values="0 0 0 0 0 0 0 0 0 0 0 0 0 0 0 0 0 0 127 0" result="hardAlpha"/>
<feOffset/>
<feGaussianBlur stdDeviation="10"/>
<feComposite in2="hardAlpha" operator="out"/>
<feColorMatrix type="matrix" values="0 0 0 0 0.293594 0 0 0 0 0.371969 0 0 0 0 0.881406 0 0 0 0.5 0"/>
<feBlend mode="normal" in2="BackgroundImageFix" result="effect1_dropShadow_77_151"/>
<feBlend mode="normal" in="SourceGraphic" in2="effect1_dropShadow_77_151" result="shape"/>
</filter>
<filter id="filter2_d_77_151" x="0" y="46" width="96" height="80" filterUnits="userSpaceOnUse" color-interpolation-filters="sRGB">
<feFlood flood-opacity="0" result="BackgroundImageFix"/>
<feColorMatrix in="SourceAlpha" type="matrix" values="0 0 0 0 0 0 0 0 0 0 0 0 0 0 0 0 0 0 127 0" result="hardAlpha"/>
<feOffset dy="2"/>
<feGaussianBlur stdDeviation="10"/>
<feComposite in2="hardAlpha" operator="out"/>
<feColorMatrix type="matrix" values="0 0 0 0 0 0 0 0 0 0 0 0 0 0 0 0 0 0 0.1 0"/>
<feBlend mode="normal" in2="BackgroundImageFix" result="effect1_dropShadow_77_151"/>
<feBlend mode="normal" in="SourceGraphic" in2="effect1_dropShadow_77_151" result="shape"/>
</filter>
<radialGradient id="paint0_radial_77_151" cx="0" cy="0" r="1" gradientUnits="userSpaceOnUse" gradientTransform="translate(46 27.6377) rotate(90) scale(46.6667 46.6667)">
<stop stop-color="#9ADDFE"/>
<stop offset="1" stop-color="#8CB8FB"/>
</radialGradient>
<radialGradient id="paint1_radial_77_151" cx="0" cy="0" r="1" gradientUnits="userSpaceOnUse" gradientTransform="translate(44.15 69) rotate(53.0191) scale(41.3101 55.8884)">
<stop stop-color="white"/>
<stop offset="1" stop-color="white" stop-opacity="0.8"/>
</radialGradient>
</defs>
</svg>
