<svg width="124" height="126" viewBox="0 0 124 126" fill="none" xmlns="http://www.w3.org/2000/svg">
<g filter="url(#filter0_d_77_142)">
<circle cx="72" cy="52" r="32" fill="url(#paint0_radial_77_142)"/>
</g>
<g filter="url(#filter1_d_77_142)">
<path fill-rule="evenodd" clip-rule="evenodd" d="M40 104C36.0444 104 32.1776 102.827 28.8886 100.629C25.5996 98.4318 23.0362 95.3082 21.5224 91.6537C20.0087 87.9991 19.6126 83.9778 20.3843 80.0982C21.156 76.2186 23.0608 72.6549 25.8579 69.8579C28.6549 67.0608 32.2186 65.156 36.0982 64.3843C39.9778 63.6126 43.9991 64.0087 47.6537 65.5224C51.3082 67.0362 54.4318 69.5996 56.6294 72.8886C56.9584 73.3809 57.2644 73.8863 57.547 74.4029C59.6316 73.9097 61.8071 73.8667 63.9263 74.2882C66.8361 74.867 69.5088 76.2956 71.6066 78.3934C73.7044 80.4912 75.133 83.1639 75.7118 86.0737C76.2906 88.9834 75.9935 91.9994 74.8582 94.7403C73.7229 97.4812 71.8003 99.8238 69.3335 101.472C66.8668 103.12 63.9667 104 61 104L40 104Z" fill="url(#paint1_radial_77_142)" shape-rendering="crispEdges"/>
</g>
<defs>
<filter id="filter0_d_77_142" x="20" y="0" width="104" height="104" filterUnits="userSpaceOnUse" color-interpolation-filters="sRGB">
<feFlood flood-opacity="0" result="BackgroundImageFix"/>
<feColorMatrix in="SourceAlpha" type="matrix" values="0 0 0 0 0 0 0 0 0 0 0 0 0 0 0 0 0 0 127 0" result="hardAlpha"/>
<feOffset/>
<feGaussianBlur stdDeviation="10"/>
<feComposite in2="hardAlpha" operator="out"/>
<feColorMatrix type="matrix" values="0 0 0 0 0.992326 0 0 0 0 0.880666 0 0 0 0 0.72434 0 0 0 1 0"/>
<feBlend mode="normal" in2="BackgroundImageFix" result="effect1_dropShadow_77_142"/>
<feBlend mode="normal" in="SourceGraphic" in2="effect1_dropShadow_77_142" result="shape"/>
</filter>
<filter id="filter1_d_77_142" x="0" y="46" width="96" height="80" filterUnits="userSpaceOnUse" color-interpolation-filters="sRGB">
<feFlood flood-opacity="0" result="BackgroundImageFix"/>
<feColorMatrix in="SourceAlpha" type="matrix" values="0 0 0 0 0 0 0 0 0 0 0 0 0 0 0 0 0 0 127 0" result="hardAlpha"/>
<feOffset dy="2"/>
<feGaussianBlur stdDeviation="10"/>
<feComposite in2="hardAlpha" operator="out"/>
<feColorMatrix type="matrix" values="0 0 0 0 0 0 0 0 0 0 0 0 0 0 0 0 0 0 0.1 0"/>
<feBlend mode="normal" in2="BackgroundImageFix" result="effect1_dropShadow_77_142"/>
<feBlend mode="normal" in="SourceGraphic" in2="effect1_dropShadow_77_142" result="shape"/>
</filter>
<radialGradient id="paint0_radial_77_142" cx="0" cy="0" r="1" gradientUnits="userSpaceOnUse" gradientTransform="translate(72 30.6667) rotate(90) scale(53.3333)">
<stop stop-color="#FED35C"/>
<stop offset="1" stop-color="#FC9B29"/>
</radialGradient>
<radialGradient id="paint1_radial_77_142" cx="0" cy="0" r="1" gradientUnits="userSpaceOnUse" gradientTransform="translate(44.15 69) rotate(53.0191) scale(41.3101 55.8884)">
<stop stop-color="white"/>
<stop offset="1" stop-color="white" stop-opacity="0.8"/>
</radialGradient>
</defs>
</svg>
