<svg width="124" height="126" viewBox="0 0 124 126" fill="none" xmlns="http://www.w3.org/2000/svg">
<g filter="url(#filter0_d_77_206)">
<circle cx="72" cy="52" r="32" fill="url(#paint0_radial_77_206)"/>
</g>
<g filter="url(#filter1_d_77_206)">
<path fill-rule="evenodd" clip-rule="evenodd" d="M49.9999 104C50 104 50 104 50 104V104H77C83.1 104 88.9501 101.577 93.2634 97.2634C97.5768 92.9501 100 87.1 100 81C100 74.9 97.5768 69.0499 93.2634 64.7365C88.9501 60.4232 83.1 58 77 58H75.3817C70.0675 49.5873 60.6862 43.9999 49.9999 43.9999C33.4314 43.9999 19.9999 57.4314 19.9999 73.9999C19.9999 90.5685 33.4314 104 49.9999 104Z" fill="url(#paint1_radial_77_206)" shape-rendering="crispEdges"/>
</g>
<defs>
<filter id="filter0_d_77_206" x="20" y="0" width="104" height="104" filterUnits="userSpaceOnUse" color-interpolation-filters="sRGB">
<feFlood flood-opacity="0" result="BackgroundImageFix"/>
<feColorMatrix in="SourceAlpha" type="matrix" values="0 0 0 0 0 0 0 0 0 0 0 0 0 0 0 0 0 0 127 0" result="hardAlpha"/>
<feOffset/>
<feGaussianBlur stdDeviation="10"/>
<feComposite in2="hardAlpha" operator="out"/>
<feColorMatrix type="matrix" values="0 0 0 0 0.992326 0 0 0 0 0.880666 0 0 0 0 0.72434 0 0 0 1 0"/>
<feBlend mode="normal" in2="BackgroundImageFix" result="effect1_dropShadow_77_206"/>
<feBlend mode="normal" in="SourceGraphic" in2="effect1_dropShadow_77_206" result="shape"/>
</filter>
<filter id="filter1_d_77_206" x="-6.10352e-05" y="25.9999" width="120" height="100" filterUnits="userSpaceOnUse" color-interpolation-filters="sRGB">
<feFlood flood-opacity="0" result="BackgroundImageFix"/>
<feColorMatrix in="SourceAlpha" type="matrix" values="0 0 0 0 0 0 0 0 0 0 0 0 0 0 0 0 0 0 127 0" result="hardAlpha"/>
<feOffset dy="2"/>
<feGaussianBlur stdDeviation="10"/>
<feComposite in2="hardAlpha" operator="out"/>
<feColorMatrix type="matrix" values="0 0 0 0 0 0 0 0 0 0 0 0 0 0 0 0 0 0 0.1 0"/>
<feBlend mode="normal" in2="BackgroundImageFix" result="effect1_dropShadow_77_206"/>
<feBlend mode="normal" in="SourceGraphic" in2="effect1_dropShadow_77_206" result="shape"/>
</filter>
<radialGradient id="paint0_radial_77_206" cx="0" cy="0" r="1" gradientUnits="userSpaceOnUse" gradientTransform="translate(72 30.6667) rotate(90) scale(53.3333)">
<stop stop-color="#FED35C"/>
<stop offset="1" stop-color="#FC9B29"/>
</radialGradient>
<radialGradient id="paint1_radial_77_206" cx="0" cy="0" r="1" gradientUnits="userSpaceOnUse" gradientTransform="translate(65.5 51.5) rotate(125.647) scale(60.9139 81.2185)">
<stop stop-color="white"/>
<stop offset="1" stop-color="white" stop-opacity="0.8"/>
</radialGradient>
</defs>
</svg>
