<svg width="119" height="104" viewBox="0 0 119 104" fill="none" xmlns="http://www.w3.org/2000/svg">
<g filter="url(#filter0_i_113_569)">
<path d="M42.5858 76.4142C43.3668 75.6332 44.6332 75.6332 45.4142 76.4142L48.5858 79.5858C49.3668 80.3668 49.3668 81.6332 48.5858 82.4142L45.4142 85.5858C44.6332 86.3668 43.3668 86.3668 42.5858 85.5858L39.4142 82.4142C38.6332 81.6332 38.6332 80.3668 39.4142 79.5858L42.5858 76.4142Z" fill="#7AA8FC" fill-opacity="0.8"/>
</g>
<g filter="url(#filter1_i_113_569)">
<path d="M64.5858 76.4142C65.3668 75.6332 66.6332 75.6332 67.4142 76.4142L70.5858 79.5858C71.3668 80.3668 71.3668 81.6332 70.5858 82.4142L67.4142 85.5858C66.6332 86.3668 65.3668 86.3668 64.5858 85.5858L61.4142 82.4142C60.6332 81.6332 60.6332 80.3668 61.4142 79.5858L64.5858 76.4142Z" fill="#7AA8FC" fill-opacity="0.8"/>
</g>
<g filter="url(#filter2_i_113_569)">
<path d="M86.5858 76.4142C87.3668 75.6332 88.6332 75.6332 89.4142 76.4142L92.5858 79.5858C93.3668 80.3668 93.3668 81.6332 92.5858 82.4142L89.4142 85.5858C88.6332 86.3668 87.3668 86.3668 86.5858 85.5858L83.4142 82.4142C82.6332 81.6332 82.6332 80.3668 83.4142 79.5858L86.5858 76.4142Z" fill="#7AA8FC" fill-opacity="0.8"/>
</g>
<g filter="url(#filter3_d_113_569)">
<path fill-rule="evenodd" clip-rule="evenodd" d="M62 42V42L54.9706 42C54.9706 42 54.9706 42 54.9706 42H62ZM62 66H38C34.4399 66 30.9598 64.9444 27.9997 62.9665C25.0397 60.9886 22.7326 58.1774 21.3702 54.8883C20.0078 51.5993 19.6513 47.9801 20.3459 44.4884C21.0404 40.9968 22.7547 37.7895 25.2721 35.2721C27.7894 32.7548 30.9967 31.0404 34.4884 30.3459C36.6682 29.9123 38.8978 29.8883 41.0657 30.263C41.3704 29.7196 41.6969 29.1869 42.0447 28.6663C44.6819 24.7195 48.4302 21.6434 52.8156 19.8269C57.201 18.0104 62.0266 17.5351 66.6822 18.4612C71.3377 19.3872 75.6141 21.673 78.9706 25.0294C82.0205 28.0794 84.1864 31.8889 85.2513 36.0523C88.7713 36.3468 92.09 37.8768 94.6066 40.3934C97.4196 43.2065 99 47.0218 99 51C99 54.9783 97.4196 58.7936 94.6066 61.6066C91.7936 64.4197 87.9782 66 84 66H62Z" fill="url(#paint0_radial_113_569)" shape-rendering="crispEdges"/>
</g>
<defs>
<filter id="filter0_i_113_569" x="38.8284" y="75.8284" width="10.3431" height="12.3433" filterUnits="userSpaceOnUse" color-interpolation-filters="sRGB">
<feFlood flood-opacity="0" result="BackgroundImageFix"/>
<feBlend mode="normal" in="SourceGraphic" in2="BackgroundImageFix" result="shape"/>
<feColorMatrix in="SourceAlpha" type="matrix" values="0 0 0 0 0 0 0 0 0 0 0 0 0 0 0 0 0 0 127 0" result="hardAlpha"/>
<feOffset dy="2"/>
<feGaussianBlur stdDeviation="2"/>
<feComposite in2="hardAlpha" operator="arithmetic" k2="-1" k3="1"/>
<feColorMatrix type="matrix" values="0 0 0 0 1 0 0 0 0 1 0 0 0 0 1 0 0 0 0.25 0"/>
<feBlend mode="plus-lighter" in2="shape" result="effect1_innerShadow_113_569"/>
</filter>
<filter id="filter1_i_113_569" x="60.8284" y="75.8284" width="10.3431" height="12.3433" filterUnits="userSpaceOnUse" color-interpolation-filters="sRGB">
<feFlood flood-opacity="0" result="BackgroundImageFix"/>
<feBlend mode="normal" in="SourceGraphic" in2="BackgroundImageFix" result="shape"/>
<feColorMatrix in="SourceAlpha" type="matrix" values="0 0 0 0 0 0 0 0 0 0 0 0 0 0 0 0 0 0 127 0" result="hardAlpha"/>
<feOffset dy="2"/>
<feGaussianBlur stdDeviation="2"/>
<feComposite in2="hardAlpha" operator="arithmetic" k2="-1" k3="1"/>
<feColorMatrix type="matrix" values="0 0 0 0 1 0 0 0 0 1 0 0 0 0 1 0 0 0 0.25 0"/>
<feBlend mode="plus-lighter" in2="shape" result="effect1_innerShadow_113_569"/>
</filter>
<filter id="filter2_i_113_569" x="82.8284" y="75.8284" width="10.3431" height="12.3433" filterUnits="userSpaceOnUse" color-interpolation-filters="sRGB">
<feFlood flood-opacity="0" result="BackgroundImageFix"/>
<feBlend mode="normal" in="SourceGraphic" in2="BackgroundImageFix" result="shape"/>
<feColorMatrix in="SourceAlpha" type="matrix" values="0 0 0 0 0 0 0 0 0 0 0 0 0 0 0 0 0 0 127 0" result="hardAlpha"/>
<feOffset dy="2"/>
<feGaussianBlur stdDeviation="2"/>
<feComposite in2="hardAlpha" operator="arithmetic" k2="-1" k3="1"/>
<feColorMatrix type="matrix" values="0 0 0 0 1 0 0 0 0 1 0 0 0 0 1 0 0 0 0.25 0"/>
<feBlend mode="plus-lighter" in2="shape" result="effect1_innerShadow_113_569"/>
</filter>
<filter id="filter3_d_113_569" x="0" y="0" width="119" height="88" filterUnits="userSpaceOnUse" color-interpolation-filters="sRGB">
<feFlood flood-opacity="0" result="BackgroundImageFix"/>
<feColorMatrix in="SourceAlpha" type="matrix" values="0 0 0 0 0 0 0 0 0 0 0 0 0 0 0 0 0 0 127 0" result="hardAlpha"/>
<feOffset dy="2"/>
<feGaussianBlur stdDeviation="10"/>
<feComposite in2="hardAlpha" operator="out"/>
<feColorMatrix type="matrix" values="0 0 0 0 0 0 0 0 0 0 0 0 0 0 0 0 0 0 0.1 0"/>
<feBlend mode="normal" in2="BackgroundImageFix" result="effect1_dropShadow_113_569"/>
<feBlend mode="normal" in="SourceGraphic" in2="effect1_dropShadow_113_569" result="shape"/>
</filter>
<radialGradient id="paint0_radial_113_569" cx="0" cy="0" r="1" gradientUnits="userSpaceOnUse" gradientTransform="translate(64.9313 24) rotate(131.517) scale(52.8876 73.8999)">
<stop stop-color="white"/>
<stop offset="1" stop-color="white" stop-opacity="0.8"/>
</radialGradient>
</defs>
</svg>
