<svg width="122" height="126" viewBox="0 0 122 126" fill="none" xmlns="http://www.w3.org/2000/svg">
<g filter="url(#filter0_d_77_176)">
<path fill-rule="evenodd" clip-rule="evenodd" d="M101.222 65.0596C98.9183 65.6731 96.4974 66 94 66C78.536 66 66 53.464 66 38C66 31.1481 68.4612 24.871 72.5477 20.0046C72.3655 20.0015 72.1829 20 72 20C54.3269 20 40 34.3269 40 52C40 69.6731 54.3269 84 72 84C85.0213 84 96.2261 76.2226 101.222 65.0596Z" fill="url(#paint0_radial_77_176)"/>
</g>
<g filter="url(#filter1_d_77_176)">
<path d="M88.0534 33.0734C88.3054 31.8996 89.9802 31.8996 90.2323 33.0734L90.9614 36.4688C91.0534 36.8974 91.3883 37.2322 91.8169 37.3243L95.2123 38.0534C96.3861 38.3054 96.3861 39.9802 95.2123 40.2323L91.8169 40.9614C91.3883 41.0534 91.0534 41.3883 90.9614 41.8169L90.2323 45.2123C89.9802 46.3861 88.3054 46.3861 88.0534 45.2123L87.3243 41.8169C87.2322 41.3883 86.8974 41.0534 86.4688 40.9614L83.0734 40.2323C81.8996 39.9802 81.8996 38.3054 83.0734 38.0534L86.4688 37.3243C86.8974 37.2322 87.2322 36.8974 87.3243 36.4688L88.0534 33.0734Z" fill="white"/>
</g>
<g filter="url(#filter2_d_77_176)">
<path fill-rule="evenodd" clip-rule="evenodd" d="M62 80V80L54.9706 80C54.9706 80 54.9706 80 54.9706 80H62ZM62 104H38C34.4399 104 30.9598 102.944 27.9997 100.966C25.0397 98.9886 22.7326 96.1774 21.3702 92.8883C20.0078 89.5993 19.6513 85.9801 20.3459 82.4884C21.0404 78.9967 22.7547 75.7895 25.2721 73.2721C27.7894 70.7548 30.9967 69.0404 34.4884 68.3459C36.6682 67.9123 38.8978 67.8883 41.0657 68.263C41.3704 67.7196 41.6969 67.1869 42.0447 66.6663C44.6819 62.7195 48.4302 59.6434 52.8156 57.8269C57.201 56.0104 62.0266 55.5351 66.6822 56.4612C71.3377 57.3872 75.6141 59.673 78.9706 63.0294C82.0205 66.0794 84.1864 69.8889 85.2513 74.0523C88.7713 74.3468 92.09 75.8768 94.6066 78.3934C97.4196 81.2065 99 85.0218 99 89C99 92.9783 97.4196 96.7936 94.6066 99.6066C91.7936 102.42 87.9782 104 84 104H62Z" fill="url(#paint1_radial_77_176)" shape-rendering="crispEdges"/>
</g>
<defs>
<filter id="filter0_d_77_176" x="20" y="0" width="101.222" height="104" filterUnits="userSpaceOnUse" color-interpolation-filters="sRGB">
<feFlood flood-opacity="0" result="BackgroundImageFix"/>
<feColorMatrix in="SourceAlpha" type="matrix" values="0 0 0 0 0 0 0 0 0 0 0 0 0 0 0 0 0 0 127 0" result="hardAlpha"/>
<feOffset/>
<feGaussianBlur stdDeviation="10"/>
<feComposite in2="hardAlpha" operator="out"/>
<feColorMatrix type="matrix" values="0 0 0 0 0.293594 0 0 0 0 0.371969 0 0 0 0 0.881406 0 0 0 0.5 0"/>
<feBlend mode="normal" in2="BackgroundImageFix" result="effect1_dropShadow_77_176"/>
<feBlend mode="normal" in="SourceGraphic" in2="effect1_dropShadow_77_176" result="shape"/>
</filter>
<filter id="filter1_d_77_176" x="73.2788" y="23.2788" width="31.7281" height="31.7281" filterUnits="userSpaceOnUse" color-interpolation-filters="sRGB">
<feFlood flood-opacity="0" result="BackgroundImageFix"/>
<feColorMatrix in="SourceAlpha" type="matrix" values="0 0 0 0 0 0 0 0 0 0 0 0 0 0 0 0 0 0 127 0" result="hardAlpha"/>
<feOffset/>
<feGaussianBlur stdDeviation="4.45714"/>
<feComposite in2="hardAlpha" operator="out"/>
<feColorMatrix type="matrix" values="0 0 0 0 1 0 0 0 0 1 0 0 0 0 1 0 0 0 0.5 0"/>
<feBlend mode="normal" in2="BackgroundImageFix" result="effect1_dropShadow_77_176"/>
<feBlend mode="normal" in="SourceGraphic" in2="effect1_dropShadow_77_176" result="shape"/>
</filter>
<filter id="filter2_d_77_176" x="0" y="38" width="119" height="88" filterUnits="userSpaceOnUse" color-interpolation-filters="sRGB">
<feFlood flood-opacity="0" result="BackgroundImageFix"/>
<feColorMatrix in="SourceAlpha" type="matrix" values="0 0 0 0 0 0 0 0 0 0 0 0 0 0 0 0 0 0 127 0" result="hardAlpha"/>
<feOffset dy="2"/>
<feGaussianBlur stdDeviation="10"/>
<feComposite in2="hardAlpha" operator="out"/>
<feColorMatrix type="matrix" values="0 0 0 0 0 0 0 0 0 0 0 0 0 0 0 0 0 0 0.1 0"/>
<feBlend mode="normal" in2="BackgroundImageFix" result="effect1_dropShadow_77_176"/>
<feBlend mode="normal" in="SourceGraphic" in2="effect1_dropShadow_77_176" result="shape"/>
</filter>
<radialGradient id="paint0_radial_77_176" cx="0" cy="0" r="1" gradientUnits="userSpaceOnUse" gradientTransform="translate(46 27.6377) rotate(90) scale(46.6667 46.6667)">
<stop stop-color="#9ADDFE"/>
<stop offset="1" stop-color="#8CB8FB"/>
</radialGradient>
<radialGradient id="paint1_radial_77_176" cx="0" cy="0" r="1" gradientUnits="userSpaceOnUse" gradientTransform="translate(64.9313 62) rotate(131.517) scale(52.8876 73.8999)">
<stop stop-color="white"/>
<stop offset="1" stop-color="white" stop-opacity="0.8"/>
</radialGradient>
</defs>
</svg>
