<svg width="122" height="122" viewBox="0 0 122 122" fill="none" xmlns="http://www.w3.org/2000/svg">
<g filter="url(#filter0_d_77_257)">
<path fill-rule="evenodd" clip-rule="evenodd" d="M82 58C85.9556 58 89.8224 56.827 93.1114 54.6294C96.4004 52.4318 98.9638 49.3082 100.478 45.6537C101.991 41.9991 102.387 37.9778 101.616 34.0982C100.844 30.2186 98.9392 26.6549 96.1421 23.8579C93.3451 21.0608 89.7814 19.156 85.9018 18.3843C82.0222 17.6126 78.0009 18.0087 74.3463 19.5224C70.6918 21.0362 67.5682 23.5996 65.3706 26.8886C65.0416 27.3809 64.7356 27.8863 64.453 28.4029C62.3684 27.9097 60.1929 27.8667 58.0737 28.2882C55.1639 28.867 52.4912 30.2956 50.3934 32.3934C48.2956 34.4912 46.867 37.1639 46.2882 40.0737C45.7094 42.9834 46.0065 45.9994 47.1418 48.7403C48.2771 51.4812 50.1997 53.8238 52.6665 55.4721C55.1332 57.1203 58.0333 58 61 58L82 58Z" fill="url(#paint0_radial_77_257)" shape-rendering="crispEdges"/>
</g>
<g filter="url(#filter1_d_77_257)">
<path fill-rule="evenodd" clip-rule="evenodd" d="M49.9999 99.9999C50 99.9999 50 99.9999 50 99.9999V100H77C83.1 100 88.9501 97.5768 93.2634 93.2634C97.5768 88.9501 100 83.1 100 77C100 70.9 97.5768 65.0499 93.2634 60.7365C88.9501 56.4232 83.1 54 77 54H75.3817C70.0675 45.5873 60.6862 39.9999 49.9999 39.9999C33.4314 39.9999 19.9999 53.4314 19.9999 69.9999C19.9999 86.5685 33.4314 99.9999 49.9999 99.9999Z" fill="url(#paint1_radial_77_257)" shape-rendering="crispEdges"/>
</g>
<defs>
<filter id="filter0_d_77_257" x="26" y="0" width="96" height="80" filterUnits="userSpaceOnUse" color-interpolation-filters="sRGB">
<feFlood flood-opacity="0" result="BackgroundImageFix"/>
<feColorMatrix in="SourceAlpha" type="matrix" values="0 0 0 0 0 0 0 0 0 0 0 0 0 0 0 0 0 0 127 0" result="hardAlpha"/>
<feOffset dy="2"/>
<feGaussianBlur stdDeviation="10"/>
<feComposite in2="hardAlpha" operator="out"/>
<feColorMatrix type="matrix" values="0 0 0 0 0 0 0 0 0 0 0 0 0 0 0 0 0 0 0.1 0"/>
<feBlend mode="normal" in2="BackgroundImageFix" result="effect1_dropShadow_77_257"/>
<feBlend mode="normal" in="SourceGraphic" in2="effect1_dropShadow_77_257" result="shape"/>
</filter>
<filter id="filter1_d_77_257" x="-6.10352e-05" y="21.9999" width="120" height="100" filterUnits="userSpaceOnUse" color-interpolation-filters="sRGB">
<feFlood flood-opacity="0" result="BackgroundImageFix"/>
<feColorMatrix in="SourceAlpha" type="matrix" values="0 0 0 0 0 0 0 0 0 0 0 0 0 0 0 0 0 0 127 0" result="hardAlpha"/>
<feOffset dy="2"/>
<feGaussianBlur stdDeviation="10"/>
<feComposite in2="hardAlpha" operator="out"/>
<feColorMatrix type="matrix" values="0 0 0 0 0 0 0 0 0 0 0 0 0 0 0 0 0 0 0.1 0"/>
<feBlend mode="normal" in2="BackgroundImageFix" result="effect1_dropShadow_77_257"/>
<feBlend mode="normal" in="SourceGraphic" in2="effect1_dropShadow_77_257" result="shape"/>
</filter>
<radialGradient id="paint0_radial_77_257" cx="0" cy="0" r="1" gradientUnits="userSpaceOnUse" gradientTransform="translate(92.5 20.5) rotate(124.216) scale(45.3486 61.3522)">
<stop stop-color="white"/>
<stop offset="1" stop-color="white" stop-opacity="0.8"/>
</radialGradient>
<radialGradient id="paint1_radial_77_257" cx="0" cy="0" r="1" gradientUnits="userSpaceOnUse" gradientTransform="translate(65.5 47.5) rotate(125.647) scale(60.9139 81.2185)">
<stop stop-color="white"/>
<stop offset="1" stop-color="white" stop-opacity="0.8"/>
</radialGradient>
</defs>
</svg>
