<svg width="108" height="108" viewBox="0 0 108 108" fill="none" xmlns="http://www.w3.org/2000/svg">
<g opacity="0.5">
<path d="M40.9499 16.397C46.7765 6.39713 61.2235 6.39713 67.0501 16.397V16.397C69.7451 21.0222 74.687 23.8754 80.0401 23.8967V23.8967C91.6135 23.9428 98.837 36.4543 93.0902 46.5002V46.5002C90.4322 51.1468 90.4322 56.8532 93.0902 61.4998V61.4998C98.837 71.5457 91.6135 84.0572 80.0401 84.1033V84.1033C74.687 84.1246 69.7451 86.9778 67.0501 91.603V91.603C61.2235 101.603 46.7765 101.603 40.9499 91.603V91.603C38.2549 86.9778 33.313 84.1246 27.9599 84.1033V84.1033C16.3865 84.0572 9.16296 71.5457 14.9098 61.4998V61.4998C17.5678 56.8532 17.5678 51.1468 14.9098 46.5002V46.5002C9.16296 36.4543 16.3865 23.9428 27.9599 23.8967V23.8967C33.313 23.8754 38.2549 21.0222 40.9499 16.397V16.397Z" fill="white"/>
<path d="M40.9499 16.397C46.7765 6.39713 61.2235 6.39713 67.0501 16.397V16.397C69.7451 21.0222 74.687 23.8754 80.0401 23.8967V23.8967C91.6135 23.9428 98.837 36.4543 93.0902 46.5002V46.5002C90.4322 51.1468 90.4322 56.8532 93.0902 61.4998V61.4998C98.837 71.5457 91.6135 84.0572 80.0401 84.1033V84.1033C74.687 84.1246 69.7451 86.9778 67.0501 91.603V91.603C61.2235 101.603 46.7765 101.603 40.9499 91.603V91.603C38.2549 86.9778 33.313 84.1246 27.9599 84.1033V84.1033C16.3865 84.0572 9.16296 71.5457 14.9098 61.4998V61.4998C17.5678 56.8532 17.5678 51.1468 14.9098 46.5002V46.5002C9.16296 36.4543 16.3865 23.9428 27.9599 23.8967V23.8967C33.313 23.8754 38.2549 21.0222 40.9499 16.397V16.397Z" fill="url(#paint0_radial_76_15)" fill-opacity="0.5" style="mix-blend-mode:plus-lighter"/>
</g>
<g opacity="0.5">
<path d="M61.5033 14.8914C71.554 9.14192 84.0713 16.3688 84.1174 27.9477V27.9477C84.1388 33.3033 86.9933 38.2475 91.6207 40.9437V40.9437C101.625 46.7731 101.625 61.2269 91.6207 67.0563V67.0563C86.9933 69.7525 84.1388 74.6968 84.1174 80.0523V80.0523C84.0713 91.6312 71.554 98.8581 61.5033 93.1086V93.1086C56.8546 90.4493 51.1455 90.4493 46.4968 93.1086V93.1086C36.4461 98.8581 23.9288 91.6312 23.8826 80.0523V80.0523C23.8613 74.6968 21.0068 69.7525 16.3794 67.0563V67.0563C6.37482 61.2269 6.37482 46.7731 16.3794 40.9437V40.9437C21.0068 38.2475 23.8613 33.3033 23.8826 27.9477V27.9477C23.9288 16.3688 36.4461 9.14192 46.4968 14.8914V14.8914C51.1455 17.5507 56.8546 17.5507 61.5033 14.8914V14.8914Z" fill="white"/>
<path d="M61.5033 14.8914C71.554 9.14192 84.0713 16.3688 84.1174 27.9477V27.9477C84.1388 33.3033 86.9933 38.2475 91.6207 40.9437V40.9437C101.625 46.7731 101.625 61.2269 91.6207 67.0563V67.0563C86.9933 69.7525 84.1388 74.6968 84.1174 80.0523V80.0523C84.0713 91.6312 71.554 98.8581 61.5033 93.1086V93.1086C56.8546 90.4493 51.1455 90.4493 46.4968 93.1086V93.1086C36.4461 98.8581 23.9288 91.6312 23.8826 80.0523V80.0523C23.8613 74.6968 21.0068 69.7525 16.3794 67.0563V67.0563C6.37482 61.2269 6.37482 46.7731 16.3794 40.9437V40.9437C21.0068 38.2475 23.8613 33.3033 23.8826 27.9477V27.9477C23.9288 16.3688 36.4461 9.14192 46.4968 14.8914V14.8914C51.1455 17.5507 56.8546 17.5507 61.5033 14.8914V14.8914Z" fill="url(#paint1_radial_76_15)" fill-opacity="0.5" style="mix-blend-mode:plus-lighter"/>
</g>
<g filter="url(#filter0_d_76_15)">
<circle cx="54" cy="54" r="34" fill="url(#paint2_radial_76_15)"/>
</g>
<defs>
<filter id="filter0_d_76_15" x="0" y="0" width="108" height="108" filterUnits="userSpaceOnUse" color-interpolation-filters="sRGB">
<feFlood flood-opacity="0" result="BackgroundImageFix"/>
<feColorMatrix in="SourceAlpha" type="matrix" values="0 0 0 0 0 0 0 0 0 0 0 0 0 0 0 0 0 0 127 0" result="hardAlpha"/>
<feOffset/>
<feGaussianBlur stdDeviation="10"/>
<feComposite in2="hardAlpha" operator="out"/>
<feColorMatrix type="matrix" values="0 0 0 0 0.992326 0 0 0 0 0.880666 0 0 0 0 0.72434 0 0 0 1 0"/>
<feBlend mode="normal" in2="BackgroundImageFix" result="effect1_dropShadow_76_15"/>
<feBlend mode="normal" in="SourceGraphic" in2="effect1_dropShadow_76_15" result="shape"/>
</filter>
<radialGradient id="paint0_radial_76_15" cx="0" cy="0" r="1" gradientUnits="userSpaceOnUse" gradientTransform="translate(54 54) rotate(90) scale(60)">
<stop stop-color="white"/>
<stop offset="1" stop-color="white" stop-opacity="0"/>
</radialGradient>
<radialGradient id="paint1_radial_76_15" cx="0" cy="0" r="1" gradientUnits="userSpaceOnUse" gradientTransform="translate(54 54) rotate(120) scale(60.0282)">
<stop stop-color="white"/>
<stop offset="1" stop-color="white" stop-opacity="0"/>
</radialGradient>
<radialGradient id="paint2_radial_76_15" cx="0" cy="0" r="1" gradientUnits="userSpaceOnUse" gradientTransform="translate(54 31.3333) rotate(90) scale(56.6667)">
<stop stop-color="#FED35C"/>
<stop offset="1" stop-color="#FC9B29"/>
</radialGradient>
</defs>
</svg>
